<svg xmlns="http://www.w3.org/2000/svg" width="75" height="83.333" viewBox="0 0 75 83.333">
  <path id="Icon_material-assignment" data-name="Icon material-assignment" d="M79.167,12.5H61.75a12.45,12.45,0,0,0-23.5,0H20.833A8.358,8.358,0,0,0,12.5,20.833V79.167A8.358,8.358,0,0,0,20.833,87.5H79.167A8.358,8.358,0,0,0,87.5,79.167V20.833A8.358,8.358,0,0,0,79.167,12.5ZM50,12.5a4.167,4.167,0,1,1-4.167,4.167A4.179,4.179,0,0,1,50,12.5Zm8.333,58.333H29.167V62.5H58.333Zm12.5-16.667H29.167V45.833H70.833v8.333Zm0-16.667H29.167V29.167H70.833V37.5Z" transform="translate(-12.5 -4.167)"/>
</svg>
