<svg xmlns="http://www.w3.org/2000/svg" width="66.667" height="87.5" viewBox="0 0 66.667 87.5">
  <path id="Icon_material-lock-outline" data-name="Icon material-lock-outline" d="M50,70.833A8.333,8.333,0,1,0,41.667,62.5,8.358,8.358,0,0,0,50,70.833Zm25-37.5H70.833V25a20.833,20.833,0,0,0-41.667,0v8.333H25a8.358,8.358,0,0,0-8.333,8.333V83.333A8.358,8.358,0,0,0,25,91.667H75a8.358,8.358,0,0,0,8.333-8.333V41.667A8.358,8.358,0,0,0,75,33.333ZM37.083,25a12.917,12.917,0,0,1,25.833,0v8.333H37.083ZM75,83.333H25V41.667H75Z" transform="translate(-16.667 -4.167)"/>
</svg>
