<svg xmlns="http://www.w3.org/2000/svg" width="40.5" height="27" viewBox="0 0 40.5 27">
  <path id="Icon_awesome-folder-open" data-name="Icon awesome-folder-open" d="M40.268,20.538l-5.092,8.73A4.5,4.5,0,0,1,31.288,31.5H3.166a1.688,1.688,0,0,1-1.458-2.538L6.8,20.233A4.5,4.5,0,0,1,10.688,18H38.81a1.687,1.687,0,0,1,1.458,2.538ZM10.688,15.75H33.75V12.375A3.375,3.375,0,0,0,30.375,9H19.125l-4.5-4.5H3.375A3.375,3.375,0,0,0,0,7.875v19.55L4.857,19.1A6.773,6.773,0,0,1,10.688,15.75Z" transform="translate(0 -4.5)"/>
</svg>
