<svg xmlns="http://www.w3.org/2000/svg" width="35.436" height="27.004" viewBox="0 0 35.436 27.004">
  <path id="Icon_awesome-sign-out-alt" data-name="Icon awesome-sign-out-alt" d="M34.945,19.2,23.133,31.008a1.69,1.69,0,0,1-2.883-1.2v-6.75H10.688A1.683,1.683,0,0,1,9,21.375v-6.75a1.683,1.683,0,0,1,1.688-1.687H20.25V6.188a1.691,1.691,0,0,1,2.883-1.2L34.945,16.8A1.7,1.7,0,0,1,34.945,19.2ZM13.5,30.656V27.844A.846.846,0,0,0,12.656,27H6.75A2.248,2.248,0,0,1,4.5,24.75V11.25A2.248,2.248,0,0,1,6.75,9h5.906a.846.846,0,0,0,.844-.844V5.344a.846.846,0,0,0-.844-.844H6.75A6.752,6.752,0,0,0,0,11.25v13.5A6.752,6.752,0,0,0,6.75,31.5h5.906A.846.846,0,0,0,13.5,30.656Z" transform="translate(0 -4.499)"/>
</svg>
