<svg xmlns="http://www.w3.org/2000/svg" width="62.5" height="41.667" viewBox="0 0 62.5 41.667">
  <path id="Icon_awesome-ticket-alt" data-name="Icon awesome-ticket-alt" d="M13.889,14.917H48.611V35.75H13.889Zm43.4,10.417A5.208,5.208,0,0,0,62.5,30.542V40.958a5.208,5.208,0,0,1-5.208,5.208H5.208A5.208,5.208,0,0,1,0,40.958V30.542a5.208,5.208,0,0,0,5.208-5.208A5.208,5.208,0,0,0,0,20.125V9.708A5.208,5.208,0,0,1,5.208,4.5H57.292A5.208,5.208,0,0,1,62.5,9.708V20.125A5.208,5.208,0,0,0,57.292,25.333ZM52.083,14.049a2.6,2.6,0,0,0-2.6-2.6H13.021a2.6,2.6,0,0,0-2.6,2.6V36.618a2.6,2.6,0,0,0,2.6,2.6H49.479a2.6,2.6,0,0,0,2.6-2.6Z" transform="translate(0 -4.5)" fill="#2b777d"/>
</svg>
