<svg xmlns="http://www.w3.org/2000/svg" width="40.5" height="27" viewBox="0 0 40.5 27">
  <path id="Icon_awesome-ticket-alt" data-name="Icon awesome-ticket-alt" d="M9,11.25H31.5v13.5H9ZM37.125,18A3.375,3.375,0,0,0,40.5,21.375v6.75A3.375,3.375,0,0,1,37.125,31.5H3.375A3.375,3.375,0,0,1,0,28.125v-6.75a3.375,3.375,0,0,0,0-6.75V7.875A3.375,3.375,0,0,1,3.375,4.5h33.75A3.375,3.375,0,0,1,40.5,7.875v6.75A3.375,3.375,0,0,0,37.125,18ZM33.75,10.688A1.687,1.687,0,0,0,32.063,9H8.438A1.687,1.687,0,0,0,6.75,10.688V25.313A1.687,1.687,0,0,0,8.438,27H32.063a1.687,1.687,0,0,0,1.688-1.687Z" transform="translate(0 -4.5)"/>
</svg>
