<svg xmlns="http://www.w3.org/2000/svg" width="45" height="36" viewBox="0 0 45 36">
  <path id="Icon_awesome-user-alt-slash" data-name="Icon awesome-user-alt-slash" d="M44.564,32.21,27.394,18.935A10.1,10.1,0,1,0,12.727,7.608L3.2.239a1.129,1.129,0,0,0-1.582.2L.239,2.208a1.12,1.12,0,0,0,.2,1.575L41.808,35.754a1.129,1.129,0,0,0,1.582-.2l1.378-1.779a1.114,1.114,0,0,0-.2-1.568ZM13.95,22.5A9.452,9.452,0,0,0,4.5,31.95v.675A3.376,3.376,0,0,0,7.875,36H34.748L17.283,22.5Z" transform="translate(-0.002)"/>
</svg>
