<svg xmlns="http://www.w3.org/2000/svg" width="45" height="36" viewBox="0 0 45 36">
  <path id="Icon_awesome-user-check" data-name="Icon awesome-user-check" d="M15.75,18a9,9,0,1,0-9-9A9,9,0,0,0,15.75,18Zm6.3,2.25H20.876a12.24,12.24,0,0,1-10.252,0H9.45A9.452,9.452,0,0,0,0,29.7v2.925A3.376,3.376,0,0,0,3.375,36h24.75A3.376,3.376,0,0,0,31.5,32.625V29.7A9.452,9.452,0,0,0,22.05,20.25Zm22.711-9.028L42.806,9.246a.834.834,0,0,0-1.181-.007l-7.369,7.313-3.2-3.22a.834.834,0,0,0-1.181-.007L27.9,15.286a.834.834,0,0,0-.007,1.181l5.745,5.787a.834.834,0,0,0,1.181.007L44.754,12.4a.84.84,0,0,0,.007-1.181Z"/>
</svg>
