<svg xmlns="http://www.w3.org/2000/svg" width="125" height="87.5" viewBox="0 0 125 87.5">
  <path id="Icon_awesome-users" data-name="Icon awesome-users" d="M18.75,43.75a12.5,12.5,0,1,0-12.5-12.5A12.512,12.512,0,0,0,18.75,43.75Zm87.5,0a12.5,12.5,0,1,0-12.5-12.5A12.512,12.512,0,0,0,106.25,43.75ZM112.5,50H100a12.463,12.463,0,0,0-8.809,3.633A28.569,28.569,0,0,1,105.859,75H118.75A6.243,6.243,0,0,0,125,68.75V62.5A12.512,12.512,0,0,0,112.5,50Zm-50,0A21.875,21.875,0,1,0,40.625,28.125,21.864,21.864,0,0,0,62.5,50Zm15,6.25H75.879a30.2,30.2,0,0,1-26.758,0H47.5A22.506,22.506,0,0,0,25,78.75v5.625a9.377,9.377,0,0,0,9.375,9.375h56.25A9.377,9.377,0,0,0,100,84.375V78.75A22.506,22.506,0,0,0,77.5,56.25ZM33.809,53.633A12.463,12.463,0,0,0,25,50H12.5A12.512,12.512,0,0,0,0,62.5v6.25A6.243,6.243,0,0,0,6.25,75H19.121A28.641,28.641,0,0,1,33.809,53.633Z" transform="translate(0 -6.25)"/>
</svg>
