<svg xmlns="http://www.w3.org/2000/svg" width="44.995" height="31.493" viewBox="0 0 44.995 31.493">
  <path id="Icon_awesome-users-cog" data-name="Icon awesome-users-cog" d="M42.926,24a8.248,8.248,0,0,0,0-3l1.814-1.048a.509.509,0,0,0,.232-.6,10.552,10.552,0,0,0-2.334-4.036.513.513,0,0,0-.633-.1L40.191,16.27a8.255,8.255,0,0,0-2.595-1.5v-2.1a.512.512,0,0,0-.4-.5,10.609,10.609,0,0,0-4.655,0,.512.512,0,0,0-.4.5v2.1a8.255,8.255,0,0,0-2.595,1.5l-1.814-1.048a.514.514,0,0,0-.633.1,10.552,10.552,0,0,0-2.334,4.036.518.518,0,0,0,.232.6L26.81,21a8.248,8.248,0,0,0,0,3L25,25.045a.509.509,0,0,0-.232.6A10.6,10.6,0,0,0,27.1,29.679a.513.513,0,0,0,.633.1l1.814-1.048a8.255,8.255,0,0,0,2.595,1.5v2.1a.512.512,0,0,0,.4.5,10.609,10.609,0,0,0,4.655,0,.512.512,0,0,0,.4-.5v-2.1a8.255,8.255,0,0,0,2.595-1.5L42,29.777a.514.514,0,0,0,.633-.1,10.552,10.552,0,0,0,2.334-4.036.518.518,0,0,0-.232-.6L42.926,24ZM34.875,25.91a3.41,3.41,0,1,1,3.41-3.41A3.413,3.413,0,0,1,34.875,25.91ZM6.75,15.75a4.5,4.5,0,1,0-4.5-4.5A4.5,4.5,0,0,0,6.75,15.75ZM22.5,18c.134,0,.26-.035.394-.042A12.962,12.962,0,0,1,25.446,13.8a2.771,2.771,0,0,1,2.032-.886,2.7,2.7,0,0,1,1.378.373l.555.323c.056-.035.112-.063.169-.1a7.783,7.783,0,0,0,.788-3.375A7.871,7.871,0,1,0,22.5,18Zm7.4,13.676c-.162-.084-.323-.183-.478-.274a3.474,3.474,0,0,1-1.934.689,2.8,2.8,0,0,1-2.032-.886,12.821,12.821,0,0,1-2.827-4.894c-.752-2.426,1.751-3.495,1.814-3.537q-.011-.274,0-.548l-.555-.323a2.864,2.864,0,0,1-.689-.57c-.232.014-.457.042-.689.042a11.1,11.1,0,0,1-4.816-1.125h-.584A8.1,8.1,0,0,0,9,28.35v2.025a3.376,3.376,0,0,0,3.375,3.375H30.333a2.707,2.707,0,0,1-.436-1.427v-.647ZM12.171,19.308A4.487,4.487,0,0,0,9,18H4.5A4.5,4.5,0,0,0,0,22.5v2.25A2.248,2.248,0,0,0,2.25,27H6.884a10.311,10.311,0,0,1,5.287-7.692Z" transform="translate(0 -2.257)"/>
</svg>
