<svg xmlns="http://www.w3.org/2000/svg" width="44.998" height="36.001" viewBox="0 0 44.998 36.001">
  <path id="Icon_awesome-user-edit" data-name="Icon awesome-user-edit" d="M15.75,18a9,9,0,1,0-9-9A9,9,0,0,0,15.75,18Zm6.3,2.25H20.876a12.24,12.24,0,0,1-10.252,0H9.45A9.452,9.452,0,0,0,0,29.7v2.925A3.376,3.376,0,0,0,3.375,36H22.7a3.376,3.376,0,0,1-.183-1.5L23,30.22l.084-.78.555-.555,5.435-5.435a9.354,9.354,0,0,0-7.024-3.2Zm3.185,10.216-.478,4.289a1.119,1.119,0,0,0,1.237,1.237l4.282-.478,9.7-9.7-5.041-5.041-9.7,9.689ZM44.508,18.907l-2.665-2.665a1.685,1.685,0,0,0-2.377,0L36.809,18.9l-.288.288,5.048,5.041,2.939-2.939a1.693,1.693,0,0,0,0-2.384Z"/>
</svg>
