<svg xmlns="http://www.w3.org/2000/svg" width="50" height="35" viewBox="0 0 50 35">
  <path id="Icon_awesome-users" data-name="Icon awesome-users" d="M7.5,17.25a5,5,0,1,0-5-5A5,5,0,0,0,7.5,17.25Zm35,0a5,5,0,1,0-5-5A5,5,0,0,0,42.5,17.25Zm2.5,2.5H40A4.985,4.985,0,0,0,36.477,21.2a11.428,11.428,0,0,1,5.867,8.547H47.5a2.5,2.5,0,0,0,2.5-2.5v-2.5A5,5,0,0,0,45,19.75Zm-20,0A8.75,8.75,0,1,0,16.25,11,8.746,8.746,0,0,0,25,19.75Zm6,2.5h-.648a12.081,12.081,0,0,1-10.7,0H19a9,9,0,0,0-9,9V33.5a3.751,3.751,0,0,0,3.75,3.75h22.5A3.751,3.751,0,0,0,40,33.5V31.25A9,9,0,0,0,31,22.25ZM13.523,21.2A4.985,4.985,0,0,0,10,19.75H5a5,5,0,0,0-5,5v2.5a2.5,2.5,0,0,0,2.5,2.5H7.648A11.456,11.456,0,0,1,13.523,21.2Z" transform="translate(0 -2.25)" fill="#2b777d"/>
</svg>
